<svg xmlns="http://www.w3.org/2000/svg" viewBox="0 0 96 96" fill="none">
  <!-- brain: domain knowledge icon -->
  <path d="M48 16C38 16 28 22 28 34C28 42 33 46 36 48V56C36 58 38 58 38 58H58C58 58 60 58 60 56V48C63 46 68 42 68 34C68 22 58 16 48 16Z" fill="#7C3AED" />
  <!-- brain fold lines -->
  <path d="M36 36Q42 30 48 36Q54 42 60 36" stroke="#A78BFA" stroke-width="3" fill="none" stroke-linecap="round" />
  <path d="M34 44Q42 40 48 44Q54 48 62 44" stroke="#A78BFA" stroke-width="3" fill="none" stroke-linecap="round" />
  <!-- knowledge nodes -->
  <circle cx="28" cy="34" r="4" fill="#06B6D4" />
  <circle cx="68" cy="34" r="4" fill="#06B6D4" />
  <circle cx="48" cy="72" r="4" fill="#06B6D4" />
  <!-- connections -->
  <line x1="32" y1="34" x2="44" y2="72" stroke="#0891B2" stroke-width="2" stroke-dasharray="3 3" />
  <line x1="64" y1="34" x2="52" y2="72" stroke="#0891B2" stroke-width="2" stroke-dasharray="3 3" />
</svg>
