<svg xmlns="http://www.w3.org/2000/svg" viewBox="0 0 96 96" fill="none">
  <!-- cloud/deployment platforms -->
  <path d="M36 36Q24 36 24 46Q24 54 30 56Q28 64 36 66Q38 74 48 72Q54 76 60 72Q70 74 72 66Q80 64 78 56Q84 54 84 46Q84 38 76 36Z" fill="#0891B2" />
  <!-- server nodes -->
  <rect x="32" y="60" width="8" height="14" rx="2" fill="#06B6D4" />
  <rect x="44" y="56" width="8" height="22" rx="2" fill="#06B6D4" />
  <rect x="56" y="60" width="8" height="14" rx="2" fill="#06B6D4" />
  <!-- node lights -->
  <circle cx="36" cy="64" r="2" fill="#67E8F9" />
  <circle cx="48" cy="60" r="2" fill="#67E8F9" />
  <circle cx="60" cy="64" r="2" fill="#67E8F9" />
</svg>
